<?xml version="1.0" encoding="utf-8"?>
<svg version="1.1" id="draw" xmlns="http://www.w3.org/2000/svg" xmlns:xlink="http://www.w3.org/1999/xlink" x="0px" y="0px"
	 viewBox="0 0 80 80" style="enable-background:new 0 0 80 80;" xml:space="preserve">
<style type="text/css">
	.st0{fill:#FFFFFF;}
	.st1{fill:#FF9900;}
</style>
<path id="outside" class="st0" d="M40,0C17.9,0,0,17.9,0,40s18,40,40,40s40-18,40-40S62,0,40,0z"/>
<circle id="inside" class="st1" cx="40" cy="40" r="36"/>
<g id="equal">
	<path class="st0" d="M52.6,36.4H27.4c-0.8,0-1.6-0.3-2.2-0.9c-0.6-0.6-0.9-1.3-0.9-2.2c0-0.8,0.3-1.6,0.9-2.2
		c0.6-0.6,1.3-0.9,2.2-0.9h25.3c0.9,0,1.6,0.3,2.2,0.9c0.6,0.6,0.9,1.3,0.9,2.2s-0.3,1.6-0.9,2.2S53.5,36.4,52.6,36.4z M52.6,49.9
		H27.4c-0.8,0-1.6-0.3-2.2-0.9c-0.6-0.6-0.9-1.4-0.9-2.2s0.3-1.6,0.9-2.2c0.6-0.6,1.3-0.9,2.2-0.9h25.3c0.8,0,1.6,0.3,2.2,0.9
		c0.6,0.6,0.9,1.3,0.9,2.2c0,0.9-0.3,1.6-0.9,2.2C54.2,49.5,53.5,49.9,52.6,49.9z"/>
</g>
</svg>
