<?xml version="1.0" encoding="utf-8"?>
<svg version="1.1" id="wrong" xmlns="http://www.w3.org/2000/svg" xmlns:xlink="http://www.w3.org/1999/xlink" x="0px" y="0px"
	 viewBox="0 0 80 80" style="enable-background:new 0 0 80 80;" xml:space="preserve">
<style type="text/css">
	.st0{fill:#FFFFFF;}
	.st1{fill:#FF0000;}
</style>
<path id="outside" class="st0" d="M40,0C17.9,0,0,17.9,0,40s18,40,40,40s40-18,40-40S62,0,40,0z"/>
<circle id="inside" class="st1" cx="40" cy="40" r="36"/>
<path id="X" class="st0" d="M57,20.2l-17,17l-17-17c-1.1-1.1-2.3-0.6-2.8,0c-0.6,0.6-1,1.6,0,2.8l17,17l-17,17
	c-1.1,1.1-0.6,2.3,0,2.8c0.6,0.6,1.6,1,2.8,0l17-17l17,17c1.1,1.1,2.3,0.6,2.8,0c0.6-0.6,1-1.6,0-2.8l-17-17l17-17
	c1.1-1.1,0.6-2.3,0-2.8C59.2,19.6,58.2,19.2,57,20.2z"/>
</svg>
