<svg id="paper" xmlns="http://www.w3.org/2000/svg" viewBox="0 0 126.5 126.5"><defs><style>.cls-1{fill:navy;}.cls-1,.cls-2{stroke:#fff;stroke-width:2.5px;}.cls-2{fill:none;}</style></defs><title>Rock-paper-scissors</title><circle id="background" class="cls-1" cx="63.25" cy="63.25" r="62"/><path id="hand" class="cls-2" d="M92.63,26.14a23.62,23.62,0,0,1,2.36-2,8.79,8.79,0,0,1,2.81-1.43,3.8,3.8,0,0,1,4.58,5.07,14.45,14.45,0,0,1-1.71,2.89,8.29,8.29,0,0,1-.64.78c2.32.07,3.36,1.5,4,3.4a3.5,3.5,0,0,1-.54,3.3q-3.7,5.31-7.38,10.64a.37.37,0,0,0,0,.37l1.32-1.46c1.29-1.4,2.63-1.86,3.8-1.29a4.16,4.16,0,0,1,1.66,4.11,12.91,12.91,0,0,1-1,2.75A48,48,0,0,1,95,62.91c-2.49,2.91-5,5.77-7.49,8.72A47.26,47.26,0,0,0,83.6,77a32.41,32.41,0,0,1-5.85,7.15,214.37,214.37,0,0,1-16.68,14,37,37,0,0,1-9.52,5.3c-1.58.56-3.07,1.37-4.62,2a5.43,5.43,0,0,1-1.15.21l-.09-.35c1.28-.57,2.51-1.26,3.84-1.7,5.9-2,10.9-5.43,15.57-9.38,4.82-4.07,9.52-8.3,14.23-12.51a9.65,9.65,0,0,0,2-2.48c2.77-4.94,6.59-9,10.25-13.3,3.08-3.58,6.3-7.06,8.69-11.16a26.07,26.07,0,0,0,1.89-4.25,3.45,3.45,0,0,0-.69-3,1.89,1.89,0,0,0-2.84-.14c-.63.53-1.14,1.2-1.72,1.79-3.56,3.63-7.08,7.3-10.7,10.86a36.25,36.25,0,0,0-5.7,7.3,8,8,0,0,1-.56.94,2.56,2.56,0,0,1-.59.43c0-.24,0-.53.07-.71,1.19-1.82,2.34-3.67,3.63-5.41a19.27,19.27,0,0,1,2.76-2.95,65.62,65.62,0,0,0,8.36-9.26c3.14-4.05,6-8.31,8.78-12.57a4,4,0,0,0-1.53-5.43,2.3,2.3,0,0,0-2.89.68C96,36,93.42,39,90.75,41.82c-3.72,4-7.32,8.09-11.63,11.5a25.13,25.13,0,0,0-2.73,3.07,5.47,5.47,0,0,1-.51.45,2.11,2.11,0,0,0-.23-.19,4.08,4.08,0,0,1,.43-.92,19.43,19.43,0,0,1,2.26-2.52c6-4.94,11.08-10.84,16.26-16.61,1.82-2,3.63-4.06,5.4-6.13a10.77,10.77,0,0,0,1.66-2.41c1.06-2.25-.51-5-2.79-4.91a4.91,4.91,0,0,0-3.14,1.12A275.93,275.93,0,0,0,74.26,43.83c-1.88,2-4,3.67-6.06,5.48a5.33,5.33,0,0,1-1,.58l-.2-.21a2.9,2.9,0,0,1,.35-.49c2.13-1.88,4.43-3.61,6.37-5.66C79,37.92,84.88,33,90.52,27.75a6.11,6.11,0,0,0,1.14-1.52,2.52,2.52,0,0,0-.49-3.11,2.81,2.81,0,0,0-3-1,10.6,10.6,0,0,0-2.34.8,36,36,0,0,0-8.07,5.56c-1,1-2.13,1.84-3.2,2.76-1.74,1.5-3.48,3-5.21,4.5a155.82,155.82,0,0,1-16,12.53c-4.34,2.88-8.55,5.95-12.8,8.95-.65.46-1.2,1-1.81,1.55a5,5,0,0,1-.69.44L37.9,59a4.08,4.08,0,0,1,.61-.75c3.07-2.34,6.1-4.74,9.23-7,4.33-3.11,8.75-6.1,13.12-9.14.4-.28.75-.63,1.13-.95a1.75,1.75,0,0,0,.59-2.23,1.46,1.46,0,0,0-1.77-.62,12.9,12.9,0,0,0-3.06.93,25.81,25.81,0,0,1-7.49,2.4,5.38,5.38,0,0,0-3.82,2.43,103.23,103.23,0,0,1-9.55,12,3,3,0,0,0-.6,1.12c-2,5.72-4,11.44-5.91,17.19a13.6,13.6,0,0,0-.45,3.45,2.05,2.05,0,0,1-1.35,2c-1.58.74-3.11,1.59-4.67,2.36-.21.1-.51,0-.77,0,.17-.2.3-.47.52-.58,1.63-.85,3.28-1.65,4.9-2.52.3-.17.69-.57.68-.85-.09-3.56,1.57-6.64,2.62-9.89,1.23-3.78,2.53-7.54,3.84-11.3a4.54,4.54,0,0,1,.91-1.56,87,87,0,0,0,8.7-10.92A8,8,0,0,1,51,40.82a43.1,43.1,0,0,0,6.08-2,27.1,27.1,0,0,1,3.48-1.12c1.74-.35,2.59.36,2.83,2.23,1.49-1.21,3-2.33,4.35-3.54C71.4,33.24,75,30,78.68,26.87a30.49,30.49,0,0,1,8-5c2.55-1,4.6-.35,5.63,1.95A8.38,8.38,0,0,1,92.63,26.14Z"/></svg>