<svg xmlns="http://www.w3.org/2000/svg" viewBox="0 0 126.5 126.5"><defs><style>.cls-1{fill:maroon;}.cls-1,.cls-2{stroke:#fff;stroke-width:2.5px;}.cls-2{fill:none;}</style></defs><title>Rock-paper-scissors</title><g id="rock"><circle id="background" class="cls-1" cx="63.25" cy="63.25" r="62"/><path id="hand" class="cls-2" d="M36.54,107.43c4.17-2.48,8.24-5.15,12.81-6.9,1.49-.57,3-1.08,4.45-1.75,2.21-1,4.38-2.15,6.55-3.28,2.5-1.29,4.94-2.69,7.47-3.93A23.42,23.42,0,0,0,74.34,87a104.87,104.87,0,0,1,14-11.8c.82-.59,1.58-1.26,2.37-1.9a5.76,5.76,0,0,0,2.08-2.82,4.23,4.23,0,0,1,1.39-1.89A5,5,0,0,0,95.92,63c-.17-.69-.31-1.38-.48-2.15-.76.39-.9,0-.78-.6a6,6,0,0,0-1.23-4.92,3.51,3.51,0,0,1-.29-1.07l.33-.1.57.93c-.08-1.83-2.3-5.64-4.08-7,.17.43.32.8.46,1.18l-.25.15a4.11,4.11,0,0,1-.65-.74,23.13,23.13,0,0,1-1.17-2.4,3.88,3.88,0,0,0-3.54-2.61,21.78,21.78,0,0,1-2.87-.58c-.25-.06-.46-.32-.87-.63a3.16,3.16,0,0,1,.62-.11c1.23.26,2.44.59,3.67.79a4.35,4.35,0,0,1,3.34,2.42,16.24,16.24,0,0,0,2,2.48l.37-.21a7.62,7.62,0,0,0-.46-1.67A30.63,30.63,0,0,0,85,38.47a10.27,10.27,0,0,0-2.44-1.35l-.21.23c.38.51.77,1,1.13,1.54a2.83,2.83,0,0,1,.25.59c-.23-.06-.54,0-.69-.19a7.49,7.49,0,0,1-.85-1.08c-.37-.53-.73-1.06-1.06-1.61a3.61,3.61,0,0,0-3.65-1.81c-1.34.13-2.68.31-4,.43a4.63,4.63,0,0,1-1-.13c0-.11,0-.23,0-.34.58-.06,1.15-.15,1.73-.19a39.74,39.74,0,0,1,4.48-.27,3,3,0,0,1,2,.9c1,1.2,2.32,1.5,3.62,2a4.25,4.25,0,0,0-.18-4.36c-1.66-2.76-4.23-3.62-7.16-3.68-2.11-.05-4.22.19-6.33.24a2.41,2.41,0,0,1-1.36-.33,3,3,0,0,0-2.81-.4c-3.51,1.23-6.57,3-8.48,6.44a25.4,25.4,0,0,1-3.83,4.8,31.56,31.56,0,0,0-7.17,11.33c-.89,2.66-1.45,5.43-2.15,8.15-.46,1.78-.8,3.6-1.36,5.34A7.8,7.8,0,0,1,42,67.47a17.15,17.15,0,0,1-9.39,5.9,62.32,62.32,0,0,0-8.06,2.76c-2.71,1-5.37,2.23-8,3.36l-.84.32-.23-.22c.16-.21.29-.52.51-.61,4.1-1.69,8.19-3.42,12.33-5,1.76-.68,3.64-1.07,5.46-1.58a15.53,15.53,0,0,0,8.48-6.26,7.56,7.56,0,0,0,.89-2.48c.75-3,1.46-5.95,2.15-8.93a31,31,0,0,1,7.34-14C54.73,38.33,57,36,58.45,33.09a2.25,2.25,0,0,1,.51-.64,17.71,17.71,0,0,1,7.17-4.34,3.77,3.77,0,0,1,3.43.45,1.71,1.71,0,0,0,1.11.19,31.35,31.35,0,0,1,9,.15A7.45,7.45,0,0,1,85.25,34a5.58,5.58,0,0,1-.15,2.76,1.3,1.3,0,0,0,.37,1.35,32.53,32.53,0,0,1,5.58,7.5,4,4,0,0,1,.59,1.9A4.08,4.08,0,0,0,92.49,50a18.1,18.1,0,0,1,2.9,7.57c.35,1.86.79,3.71,1.18,5.56a5.5,5.5,0,0,1-1.76,5.73,12.58,12.58,0,0,0-1.8,2.7,5.66,5.66,0,0,1-.81,1.19c-1.51,1.3-3,2.62-4.62,3.79A92.7,92.7,0,0,0,75.47,86.81a28.76,28.76,0,0,1-8.57,5.92,53.35,53.35,0,0,0-6.6,3.6,51.38,51.38,0,0,1-9.69,4.37,72.12,72.12,0,0,0-13,6.86,3.27,3.27,0,0,1-1,.27Z"/></g></svg>