<?xml version="1.0" encoding="utf-8"?>
<!-- Generator: Adobe Illustrator 24.0.0, SVG Export Plug-In . SVG Version: 6.00 Build 0)  -->
<svg version="1.1" id="Layer_1" xmlns="http://www.w3.org/2000/svg" xmlns:xlink="http://www.w3.org/1999/xlink" x="0px" y="0px"
	 viewBox="0 0 460 440" style="enable-background:new 0 0 460 440;" xml:space="preserve">
<style type="text/css">
	.st0{fill:none;stroke:#FFFFFF;stroke-width:3;}
	.st1{fill:#FFFFFF;}
	.st2{fill:#800000;stroke:#FFFFFF;stroke-width:2.5;}
	.st3{fill:none;stroke:#FFFFFF;stroke-width:2.5;}
	.st4{fill:#008000;stroke:#FFFFFF;stroke-width:2.5;}
	.st5{fill:#000080;stroke:#FFFFFF;stroke-width:2.5;}
	.st6{font-family:'ArialMT';}
	.st7{font-size:30px;}
	.st8{font-size:18px;}
</style>
<g>
	<path class="st0" d="M135,337c-44.3-31.1-74-81.7-76.6-139.3"/>
	<polygon class="st1" points="65.6,209.1 63.8,209.9 58.6,197.8 54.8,210.4 52.9,209.8 58.3,192 	"/>
	<path class="st0" d="M418.6,195c-1.9,61.4-34.4,115-82.9,146.1"/>
	<polygon class="st1" points="342.1,329.2 343.7,330.3 335.9,340.9 348.6,337.8 349.1,339.8 331,344.1 	"/>
	<path class="st0" d="M143,36.4c27.7-17.3,60.4-27.3,95.4-27.3c31.8,0,61.7,8.2,87.6,22.7"/>
	<polygon class="st1" points="312.6,31.9 312.9,29.9 325.8,31.9 317.1,22.1 318.6,20.7 331,34.6 	"/>
</g>
<g>
	<g>
		<circle class="st2" cx="237" cy="365" r="62"/>
		<path class="st3" d="M210.3,409.2c0,0.1,0.1,0.3,0.1,0.4c0.3-0.1,0.7-0.1,1-0.3c4.1-2.6,8.4-5.1,13-6.9c3.3-1.3,6.7-2.4,9.7-4.4
			c2.1-1.4,4.3-2.5,6.6-3.6c3.2-1.5,6.1-3.4,8.6-5.9c3.7-3.8,7.8-7.2,12.1-10.3c1.6-1.2,3.1-2.5,4.6-3.8c0.4-0.3,0.5-0.8,0.8-1.2
			c0.6-0.9,1-2,1.8-2.7c1.8-1.6,2.2-3.5,1.8-5.7c-0.4-1.9-0.8-3.7-1.2-5.6c-0.5-2.7-1.2-5.3-2.9-7.6c-0.6-0.8-0.9-1.6-0.9-2.5
			c0-0.6-0.3-1.3-0.6-1.9c-1.5-2.8-3.4-5.3-5.6-7.5c-0.4-0.4-0.5-0.8-0.4-1.3c0.2-0.9,0.5-2,0.1-2.8c-1-2.6-2.7-4.5-5.6-5
			c-3-0.6-6-0.4-9-0.1c-0.4,0-0.8,0-1.1-0.2c-1.1-0.8-2.3-0.8-3.4-0.4c-2.7,0.8-5.1,2.4-7.2,4.3c-0.2,0.2-0.4,0.4-0.5,0.6
			c-1.4,2.9-3.7,5.2-5.9,7.6c-3.6,4.1-6.1,8.7-7.3,14c-0.7,3-1.4,6-2.2,8.9c-0.2,0.9-0.4,1.8-0.9,2.5c-2.1,3-4.9,5.2-8.5,6.3
			c-1.8,0.5-3.7,0.9-5.5,1.6c-4.1,1.6-8.2,3.3-12.3,5c-0.2,0.1-0.3,0.4-0.5,0.6c0.1,0.1,0.2,0.1,0.2,0.2c0.3-0.1,0.6-0.2,0.8-0.3
			c2.7-1.1,5.3-2.3,8.1-3.4c2.7-1,5.3-2.1,8.1-2.8c3.9-0.9,6.9-3,9.4-5.9c0.7-0.8,1.1-1.8,1.4-2.7c0.6-1.7,0.9-3.6,1.4-5.3
			c0.7-2.7,1.3-5.5,2.2-8.2c1.5-4.3,4.1-8,7.2-11.3c1.4-1.5,2.9-3,3.8-4.8c1.9-3.5,5-5.2,8.5-6.4c1-0.3,1.9-0.2,2.8,0.4
			c0.4,0.2,0.9,0.3,1.4,0.3c2.1-0.1,4.2-0.3,6.3-0.2c2.9,0.1,5.5,0.9,7.2,3.7c0.9,1.5,0.9,2.9,0.2,4.4c-1.3-0.5-2.6-0.8-3.6-2
			c-0.4-0.5-1.3-0.9-2-0.9c-1.5-0.1-3,0.2-4.5,0.3c-0.6,0-1.2,0.1-1.7,0.2c0,0.1,0,0.2,0,0.3c0.3,0,0.7,0.2,1,0.1
			c1.3-0.1,2.7-0.3,4-0.4c1.6-0.1,2.8,0.4,3.6,1.8c0.3,0.5,0.7,1.1,1.1,1.6c0.3,0.4,0.5,0.8,0.9,1.1c0.1,0.1,0.5,0.1,0.7,0.2
			c-0.1-0.2-0.1-0.4-0.3-0.6c-0.4-0.5-0.7-1-1.1-1.5c0.1-0.1,0.1-0.2,0.2-0.2c0.8,0.4,1.8,0.7,2.4,1.4c2.3,2.2,4.2,4.8,5.7,7.7
			c0.3,0.5,0.3,1.1,0.5,1.7c-0.1,0.1-0.3,0.1-0.4,0.2c-0.7-0.8-1.5-1.6-2-2.5c-0.8-1.4-1.8-2.2-3.3-2.4c-1.2-0.2-2.4-0.5-3.7-0.8
			c-0.1,0-0.2,0-0.6,0.1c0.4,0.3,0.6,0.6,0.9,0.6c0.9,0.2,1.9,0.5,2.9,0.6c1.7,0.2,2.9,1,3.5,2.6c0.3,0.8,0.7,1.6,1.2,2.4
			c0.2,0.3,0.4,0.5,0.7,0.7c0.1-0.1,0.2-0.1,0.3-0.2c-0.1-0.4-0.3-0.7-0.5-1.2c1.8,1.4,4,5.2,4.1,7c-0.2-0.4-0.4-0.6-0.6-0.9
			c-0.1,0-0.2,0.1-0.3,0.1c0.1,0.4,0.1,0.8,0.3,1.1c1.1,1.5,1.6,3.1,1.2,4.9c-0.1,0.5,0,1,0.8,0.6c0.2,0.8,0.3,1.5,0.5,2.1
			c0.5,2.2,0.1,4.1-1.8,5.6c-0.6,0.5-1.2,1.2-1.4,1.9c-0.4,1.2-1.1,2.1-2.1,2.8c-0.8,0.6-1.5,1.3-2.4,1.9c-5,3.6-9.7,7.4-14,11.8
			c-1.9,1.9-4.1,3.4-6.5,4.6c-2.5,1.2-5,2.6-7.5,3.9c-2.2,1.1-4.3,2.3-6.6,3.3c-1.4,0.7-3,1.2-4.4,1.7
			C218.5,404,214.5,406.7,210.3,409.2z"/>
		<path class="st3" d="M210.3,409.2c4.2-2.5,8.2-5.2,12.8-6.9c1.5-0.6,3-1.1,4.4-1.7c2.2-1,4.4-2.2,6.6-3.3c2.5-1.3,4.9-2.7,7.5-3.9
			c2.4-1.2,4.6-2.6,6.5-4.6c4.3-4.4,9-8.2,14-11.8c0.8-0.6,1.6-1.3,2.4-1.9c0.9-0.8,1.7-1.6,2.1-2.8c0.2-0.7,0.8-1.4,1.4-1.9
			c1.9-1.5,2.3-3.4,1.8-5.6c-0.2-0.7-0.3-1.4-0.5-2.1c-0.8,0.4-0.9-0.1-0.8-0.6c0.4-1.9-0.2-3.4-1.2-4.9c-0.2-0.3-0.2-0.7-0.3-1.1
			c0.1,0,0.2-0.1,0.3-0.1c0.2,0.3,0.3,0.6,0.6,0.9c-0.1-1.8-2.3-5.6-4.1-7c0.2,0.4,0.3,0.8,0.5,1.2c-0.1,0.1-0.2,0.1-0.3,0.2
			c-0.2-0.2-0.5-0.5-0.7-0.7c-0.4-0.8-0.8-1.6-1.2-2.4c-0.6-1.6-1.8-2.4-3.5-2.6c-1-0.1-1.9-0.3-2.9-0.6c-0.3-0.1-0.5-0.3-0.9-0.6
			c0.4-0.1,0.5-0.1,0.6-0.1c1.2,0.3,2.4,0.6,3.7,0.8c1.5,0.3,2.6,1,3.3,2.4c0.5,0.9,1.3,1.7,2,2.5c0.1-0.1,0.3-0.1,0.4-0.2
			c-0.1-0.6-0.2-1.2-0.5-1.7c-1.5-2.8-3.4-5.4-5.7-7.7c-0.6-0.6-1.6-0.9-2.4-1.4c-0.1,0.1-0.1,0.2-0.2,0.2c0.4,0.5,0.8,1,1.1,1.5
			c0.1,0.2,0.2,0.4,0.3,0.6c-0.2-0.1-0.5,0-0.7-0.2c-0.3-0.3-0.6-0.7-0.9-1.1c-0.4-0.5-0.7-1.1-1.1-1.6c-0.8-1.4-2.1-2-3.6-1.8
			c-1.3,0.1-2.7,0.3-4,0.4c-0.3,0-0.7-0.1-1-0.1c0-0.1,0-0.2,0-0.3c0.6-0.1,1.2-0.1,1.7-0.2c1.5-0.1,3-0.3,4.5-0.3
			c0.7,0,1.6,0.4,2,0.9c1,1.2,2.3,1.5,3.6,2c0.7-1.5,0.7-2.9-0.2-4.4c-1.7-2.8-4.2-3.6-7.2-3.7c-2.1,0-4.2,0.2-6.3,0.2
			c-0.5,0-1-0.1-1.4-0.3c-0.9-0.6-1.9-0.7-2.8-0.4c-3.5,1.2-6.6,3-8.5,6.4c-1,1.8-2.4,3.3-3.8,4.8c-3.1,3.3-5.7,7-7.2,11.3
			c-0.9,2.7-1.5,5.4-2.2,8.2c-0.5,1.8-0.8,3.6-1.4,5.3c-0.3,1-0.8,2-1.4,2.7c-2.5,2.9-5.5,5-9.4,5.9c-2.8,0.6-5.4,1.7-8.1,2.8
			c-2.7,1-5.4,2.2-8.1,3.4c-0.3,0.1-0.6,0.2-0.8,0.3c-0.1-0.1-0.2-0.1-0.2-0.2c0.2-0.2,0.3-0.5,0.5-0.6c4.1-1.7,8.2-3.4,12.3-5
			c1.8-0.7,3.6-1.1,5.5-1.6c3.6-1,6.3-3.3,8.5-6.3c0.5-0.7,0.7-1.6,0.9-2.5c0.7-3,1.5-5.9,2.2-8.9c1.2-5.3,3.7-10,7.3-14
			c2.1-2.4,4.4-4.7,5.9-7.6c0.1-0.2,0.3-0.5,0.5-0.6c2.1-2,4.4-3.5,7.2-4.3c1.2-0.4,2.3-0.3,3.4,0.4c0.3,0.2,0.7,0.2,1.1,0.2
			c3-0.3,6-0.4,9,0.1c2.9,0.6,4.6,2.5,5.6,5c0.3,0.8,0,1.8-0.1,2.8c-0.1,0.6-0.1,0.9,0.4,1.3c2.2,2.2,4.1,4.7,5.6,7.5
			c0.3,0.6,0.6,1.3,0.6,1.9c0,1,0.3,1.8,0.9,2.5c1.6,2.3,2.4,4.9,2.9,7.6c0.3,1.9,0.8,3.7,1.2,5.6c0.5,2.2,0.1,4.1-1.8,5.7
			c-0.8,0.7-1.2,1.8-1.8,2.7c-0.3,0.4-0.5,0.9-0.8,1.2c-1.5,1.3-3,2.6-4.6,3.8c-4.3,3.1-8.4,6.5-12.1,10.3c-2.5,2.5-5.4,4.4-8.6,5.9
			c-2.3,1.1-4.5,2.2-6.6,3.6c-3,2-6.4,3.1-9.7,4.4c-4.6,1.8-8.8,4.2-13,6.9c-0.3,0.2-0.7,0.2-1,0.3
			C210.3,409.5,210.3,409.3,210.3,409.2z"/>
	</g>
	<g>
		<circle class="st2" cx="237" cy="264" r="36"/>
		<path class="st3" d="M257.5,281c-10.7,4.2-9.6,2.5-12.2,3.5c-0.4,0.1-8-4-10.9-4.3c-2.9-0.3-13.9,2.1-19.8-3.1
			c-5.9-5.2-2.5-16-2.5-16s0.4-14.1,11.4-18.4c9.1-3.6,12.9-2,12.9-2l13,3.9l4.2,3.3c0,0,6.7,10.1,7.7,11.3
			C262.3,260.6,270.1,276.1,257.5,281z"/>
	</g>
	<g>
		<circle class="st4" cx="82" cy="106" r="62"/>
		<path class="st3" d="M59.5,147.4c0,0.1,0.1,0.3,0.1,0.4c0.3-0.1,0.7-0.1,1-0.2c1.6-0.8,3.1-1.7,4.7-2.5c0.4-0.2,0.8-0.3,1.3-0.5
			c1-0.3,2.2-0.4,3.1-0.9c2.2-1.1,4.4-2.3,6.5-3.6c5.5-3.4,10.2-8,15.2-12.1c0.2-0.2,0.4-0.6,0.5-0.9c0.1-0.9,0.7-1.5,1.5-1.9
			c1-0.5,2.1-1.1,3.2-1.5c3.7-1.5,5.3-6.6,2.4-9.4c-0.5-0.4-0.4-0.9-0.1-1.4c0.6-0.8,1.1-1.7,1.6-2.6c0.6-1.1,0.8-2.3,0.3-3.6
			c-0.6-1.6-1.9-2.7-3.3-3.6c-1.1-0.7-2.2-1.3-3.6-0.7c-0.2,0.1-0.5-0.2-0.8-0.3c0.1-0.2,0.2-0.5,0.3-0.7c0.6-0.4,1.1-0.8,1.7-1.2
			c4.1-2.2,8.1-4.4,11.7-7.4c4.1-3.3,8.6-6,13-9c1.1-0.7,2.2-1.5,3.2-2.3c0.4-0.3,0.7-0.9,0.8-1.4c0.5-2.5-1.9-5.6-4.9-4.7
			c-3,0.9-5.9,1.9-8.6,3.5c-1.4,0.8-2.8,1.5-4.2,2.3c-5.1,2.8-10.5,5.2-15.1,8.9c-0.9,0.7-1.8,1.2-2.7,1.9c-0.6,0.4-1.1,0.2-1.4-0.4
			c-0.7-1.5-0.6-2.9-0.1-4.4c0.9-2.7,1.7-5.5,2.8-8.1c1.9-4.6,4.1-9.1,6.2-13.6c0.6-1.3,1.2-2.6,1.5-3.9c0.4-1.5-0.1-2.9-1.3-3.9
			c-1.2-1-2.6-0.8-3.9-0.1c-0.8,0.5-1.6,1.2-2.2,1.9c-4.5,6.4-9.1,12.7-12.2,19.8c-1,2.2-1.9,4.3-3,6.4c-0.6,1.2-1.5,2.4-2.4,3.4
			c-1.1,1.2-2,2.5-2.7,4c-0.6,1.2-1.4,2.2-2.2,3.3c-1.3,1.6-2.8,3-4,4.7c-4.7,6.1-9.3,12.2-14,18.3c-0.5,0.7-1.3,1.3-2.1,1.7
			c-2.4,1.3-4.9,2.5-7.4,3.7c-0.2,0.1-0.4,0.2-0.6,0.4c0,0.1,0,0.2,0.1,0.3c0.3,0,0.6,0,0.8-0.1c2.5-1.2,4.9-2.4,7.4-3.6
			c1-0.5,1.8-1.2,2.4-2.1c1.1-1.6,2.3-3.2,3.5-4.7c4.6-6.2,9.1-12.4,14.3-18c1-1.1,1.8-2.3,2.5-3.7c0.5-1.1,1.1-2.2,2-3
			c1.5-1.5,2.6-3.1,3.5-5c0.5-1.1,1-2.1,1.5-3.2c3.2-7.9,8-14.8,12.9-21.7c0.6-0.9,1.4-1.7,2.3-2.3c2.2-1.2,4.2-0.1,4.4,2.4
			c0,0.7-0.1,1.4-0.4,2.1c-0.6,1.5-1.3,2.9-2,4.3c-3.5,6.5-5.9,13.5-8.2,20.5c-0.5,1.6-0.4,3.1,0.3,4.6c0.5,1,1,1.2,2,0.6
			c1.2-0.7,2.3-1.5,3.4-2.3c2.7-1.9,5.4-3.8,8.4-5.3c3.6-1.8,7.2-3.8,10.7-5.7c2.6-1.5,5.4-2.4,8.2-3.3c2.2-0.7,4.3,1.6,4.1,3.7
			c-0.1,0.5-0.4,1.1-0.8,1.4c-1.4,1.1-2.9,2-4.4,3c-4.1,2.8-8.3,5.4-12.1,8.5c-2.7,2.2-5.6,4.1-8.7,5.6c-1,0.5-1.9,1-2.8,1.5
			c-0.6,0.4-1.2,0.8-1.8,1.3c-0.2,0.2-0.4,0.7-0.3,0.9c0.2,0.4,0.6,0.7,1,0.9c0.2,0.1,0.6-0.1,0.9-0.1c0.6,0,1.3-0.1,1.8,0.2
			c1.1,0.7,2.3,1.4,3.2,2.3c1.3,1.3,1.5,2.9,0.6,4.5c-0.5,1-1.2,2-1.9,3.1c-1.1-0.9-2.1-1.7-3-2.5c-0.1-0.1-0.3-0.1-0.4-0.2
			c0,0.2-0.1,0.5,0,0.5c0.3,0.4,0.8,0.7,1.1,1.1c1,1,2.2,1.9,3.1,3c1.7,2.1,1.3,5.2-0.7,6.9c-0.2,0.1-0.4,0.3-0.5,0.3
			c-1.6-0.2-2.9,0.4-3.9,1.6c-0.9,1-2.3,1.6-2.3,3.1c0,0.2-0.3,0.4-0.5,0.6c-2.7,2.3-5.3,4.6-8.1,6.8c-5.1,4-10.2,8.1-16.8,9.7
			C63.6,144.8,61.6,146.3,59.5,147.4z"/>
		<path class="st3" d="M59.5,147.4c2.1-1.1,4.1-2.7,6.4-3.2c6.6-1.6,11.7-5.7,16.8-9.7c2.8-2.2,5.4-4.5,8.1-6.8
			c0.2-0.2,0.5-0.4,0.5-0.6c0.1-1.6,1.5-2.2,2.3-3.1c1-1.1,2.3-1.7,3.9-1.6c0.2,0,0.4-0.2,0.5-0.3c2-1.8,2.4-4.9,0.7-6.9
			c-0.9-1.1-2-2-3.1-3c-0.4-0.4-0.8-0.7-1.1-1.1c-0.1-0.1,0-0.4,0-0.5c0.1,0.1,0.3,0.1,0.4,0.2c1,0.8,2,1.6,3,2.5
			c0.7-1.1,1.3-2.1,1.9-3.1c0.8-1.6,0.7-3.2-0.6-4.5c-1-0.9-2.1-1.7-3.2-2.3c-0.5-0.3-1.2-0.1-1.8-0.2c-0.3,0-0.7,0.2-0.9,0.1
			c-0.4-0.2-0.8-0.5-1-0.9c-0.1-0.2,0.1-0.7,0.3-0.9c0.5-0.5,1.1-0.9,1.8-1.3c0.9-0.6,1.9-1,2.8-1.5c3.1-1.6,5.9-3.5,8.7-5.6
			c3.9-3,8.1-5.7,12.1-8.5c1.5-1,3-1.9,4.4-3c0.4-0.3,0.8-0.9,0.8-1.4c0.2-2.1-1.9-4.4-4.1-3.7c-2.9,0.9-5.6,1.8-8.2,3.3
			c-3.5,2-7.1,4-10.7,5.7c-3,1.5-5.7,3.3-8.4,5.3c-1.1,0.8-2.2,1.6-3.4,2.3c-1,0.6-1.5,0.4-2-0.6c-0.8-1.5-0.9-3-0.3-4.6
			c2.3-7,4.7-14,8.2-20.5c0.8-1.4,1.4-2.8,2-4.3c0.3-0.6,0.4-1.4,0.4-2.1c-0.2-2.5-2.2-3.6-4.4-2.4c-0.9,0.5-1.7,1.4-2.3,2.3
			c-4.9,6.9-9.7,13.8-12.9,21.7c-0.4,1.1-1,2.1-1.5,3.2c-0.8,1.9-2,3.6-3.5,5c-0.8,0.8-1.5,2-2,3c-0.7,1.4-1.5,2.6-2.5,3.7
			c-5.2,5.6-9.7,11.8-14.3,18c-1.2,1.6-2.4,3.1-3.5,4.7c-0.6,0.9-1.4,1.6-2.4,2.1c-2.5,1.2-4.9,2.4-7.4,3.6c-0.2,0.1-0.5,0-0.8,0.1
			c0-0.1,0-0.2-0.1-0.3c0.2-0.1,0.4-0.3,0.6-0.4c2.5-1.2,5-2.4,7.4-3.7c0.8-0.4,1.5-1,2.1-1.7c4.7-6.1,9.3-12.2,14-18.3
			c1.3-1.6,2.7-3.1,4-4.7c0.8-1,1.6-2.1,2.2-3.3c0.7-1.5,1.6-2.8,2.7-4c0.9-1,1.8-2.2,2.4-3.4c1.1-2.1,2.1-4.2,3-6.4
			c3.2-7.2,7.7-13.5,12.2-19.8c0.5-0.8,1.3-1.5,2.2-1.9c1.3-0.8,2.7-0.9,3.9,0.1c1.3,1,1.7,2.4,1.3,3.9c-0.4,1.3-0.9,2.6-1.5,3.9
			c-2,4.5-4.2,9-6.2,13.6c-1.1,2.6-1.9,5.4-2.8,8.1c-0.5,1.5-0.6,2.9,0.1,4.4c0.3,0.7,0.7,0.9,1.4,0.4c0.9-0.6,1.9-1.2,2.7-1.9
			c4.6-3.7,9.9-6.2,15.1-8.9c1.4-0.8,2.8-1.4,4.2-2.3c2.7-1.7,5.6-2.7,8.6-3.5c3-0.9,5.4,2.2,4.9,4.7c-0.1,0.5-0.4,1-0.8,1.4
			c-1,0.8-2.1,1.5-3.2,2.3c-4.4,3-8.9,5.7-13,9c-3.6,3-7.7,5.1-11.7,7.4c-0.6,0.3-1.2,0.8-1.7,1.2c-0.2,0.1-0.2,0.4-0.3,0.7
			c0.3,0.1,0.6,0.4,0.8,0.3c1.4-0.6,2.5,0,3.6,0.7c1.4,0.9,2.7,1.9,3.3,3.6c0.4,1.2,0.3,2.4-0.3,3.6c-0.5,0.9-1,1.7-1.6,2.6
			c-0.3,0.5-0.4,0.9,0.1,1.4c2.9,2.8,1.3,7.9-2.4,9.4c-1.1,0.4-2.1,1-3.2,1.5c-0.8,0.4-1.4,0.9-1.5,1.9c0,0.3-0.2,0.7-0.5,0.9
			c-5,4.1-9.6,8.6-15.2,12.1c-2.1,1.3-4.3,2.5-6.5,3.6c-1,0.5-2.1,0.6-3.1,0.9c-0.4,0.1-0.9,0.3-1.3,0.5c-1.6,0.8-3.1,1.7-4.7,2.5
			c-0.3,0.2-0.7,0.1-1,0.2C59.5,147.7,59.5,147.6,59.5,147.4z"/>
	</g>
	<g>
		<circle class="st4" cx="169" cy="158" r="36"/>
		<path class="st3" d="M198.6,157.5c-0.1,0.3-0.2,0.5-0.3,0.8c-1.1,3.3-4.3,5-7.6,4.2c-2.5-0.7-5-1.4-7.5-2c-3.1-0.7-6.1,0-9,0.8
			c-0.2,0.1-0.5,0.5-0.5,0.8c-0.2,4.2,0.6,8.2,2.8,11.9c0.8,1.3,1.5,2.6,2.3,3.8c2.2,3.5,0.5,8.4-3.7,9.3c-0.1,0-0.2,0.1-0.4,0.2
			c-0.5,0-0.9,0-1.4,0c-1.9-0.6-3.6-1.4-4.8-3.2c-2.1-3.1-1.4-6.9,1.8-8.7c0.6-0.3,1.2-0.4,1.9-0.6c1.2-0.2,1.6-0.7,1.2-1.9
			c-0.3-0.8-0.7-1.6-1-2.5c-1-2.6-2-5.1-3-7.7c-0.3-0.7-0.6-1-1.3-1c-5.9-0.3-11.7-0.5-17.6-0.9c-1.7-0.1-3.4-0.2-5-0.6
			c-2.6-0.6-4.5-2.4-5.2-4.6c9.1,0.3,18.1,0.6,27.3,0.9c-2.5-8.8-5-17.4-7.5-26.1c2.3,0.3,4,1.4,5.2,3.1c0.7,1.1,1.4,2.3,1.8,3.6
			c2,6.2,3.8,12.3,5.7,18.5c0.2,0.7,0.5,1,1.3,1.1c3.2,0.3,6.4,0.8,9.6,1.2c0.4,0.1,0.8,0.1,1.2,0.1c1,0,1.4-0.5,1.3-1.5
			c-0.5-4.8,4-7.4,8-5.9c2.3,0.8,3.8,2.4,4.4,4.8c0,0.2,0.1,0.3,0.2,0.4C198.6,156.6,198.6,157.1,198.6,157.5z M192,160
			c2.1,0,3.8-1.5,3.8-3.4c0-1.8-1.8-3.4-3.8-3.4c-1.9,0-3.6,1.6-3.6,3.6C188.4,158.6,189.9,160,192,160z M170.1,180.8
			c0,1.9,1.7,3.7,3.5,3.7c1.8,0,3.2-1.5,3.2-3.4c0-2-1.5-3.7-3.3-3.7C171.6,177.3,170.1,178.9,170.1,180.8z"/>
	</g>
	<g>
		<circle class="st5" cx="384" cy="106" r="62"/>
		<path class="st3" d="M413.4,68.9c-0.1-0.8,0-1.6-0.3-2.3c-1-2.3-3.1-3-5.6-2c-3,1.2-5.6,3-8,5c-3.7,3.1-7.3,6.4-10.9,9.5
			c-1.4,1.2-2.9,2.3-4.3,3.5c-0.2-1.9-1.1-2.6-2.8-2.2c-1.2,0.2-2.3,0.7-3.5,1.1c-2,0.7-4,1.6-6.1,2c-2.5,0.4-4.3,1.6-5.7,3.7
			c-2.6,3.9-5.6,7.5-8.7,10.9c-0.4,0.4-0.7,1-0.9,1.6c-1.3,3.8-2.6,7.5-3.8,11.3c-1.1,3.2-2.7,6.3-2.6,9.9c0,0.3-0.4,0.7-0.7,0.8
			c-1.6,0.9-3.3,1.7-4.9,2.5c-0.2,0.1-0.4,0.4-0.5,0.6c0.3,0,0.6,0.1,0.8,0c1.6-0.8,3.1-1.6,4.7-2.4c0.9-0.4,1.3-1,1.4-2
			c0.1-1.2,0.1-2.4,0.4-3.4c1.9-5.8,3.9-11.5,5.9-17.2c0.1-0.4,0.3-0.8,0.6-1.1c3.5-3.8,6.7-7.8,9.6-12c0.9-1.4,2.2-2.2,3.8-2.4
			c2.6-0.4,5.1-1.2,7.5-2.4c0.9-0.5,2-0.7,3.1-0.9c0.6-0.1,1.4-0.1,1.8,0.6c0.4,0.8,0.2,1.6-0.6,2.2c-0.4,0.3-0.7,0.7-1.1,0.9
			c-4.4,3-8.8,6-13.1,9.1c-3.1,2.2-6.2,4.6-9.2,7c-0.2,0.2-0.4,0.5-0.6,0.7c0.1,0.1,0.1,0.2,0.2,0.2c0.2-0.1,0.5-0.3,0.7-0.4
			c0.6-0.5,1.2-1.1,1.8-1.6c4.3-3,8.5-6.1,12.8-8.9c5.7-3.8,10.8-8.1,16-12.5c1.7-1.5,3.5-3,5.2-4.5c1.1-0.9,2.2-1.8,3.2-2.8
			c2.4-2.3,5.2-4,8.1-5.6c0.7-0.4,1.5-0.6,2.3-0.8c1.2-0.3,2.2,0.1,3,1c0.8,0.9,1.1,2,0.5,3.1c-0.3,0.5-0.7,1.1-1.1,1.5
			c-5.6,5.2-11.5,10.2-16.8,15.8c-1.9,2.1-4.2,3.8-6.4,5.7c-0.1,0.1-0.2,0.3-0.3,0.5c0.1,0.1,0.1,0.1,0.2,0.2c0.4-0.2,0.8-0.3,1-0.6
			c2-1.8,4.2-3.5,6.1-5.5c6.7-7,14.1-13.3,21.5-19.6c0.9-0.8,2-1.1,3.1-1.1c2.3-0.1,3.8,2.7,2.8,4.9c-0.4,0.9-1,1.7-1.7,2.4
			c-1.8,2.1-3.6,4.1-5.4,6.1c-5.2,5.8-10.2,11.7-16.3,16.6c-0.9,0.7-1.5,1.7-2.3,2.5c-0.2,0.3-0.3,0.6-0.4,0.9
			c0.1,0.1,0.2,0.1,0.2,0.2c0.2-0.1,0.4-0.3,0.5-0.4c0.9-1,1.7-2.2,2.7-3.1c4.3-3.4,7.9-7.5,11.6-11.5c2.7-2.9,5.2-5.9,7.8-8.8
			c0.8-0.9,1.9-1.2,2.9-0.7c1.9,0.9,2.7,3.7,1.5,5.4c-2.8,4.3-5.6,8.5-8.8,12.6c-2.6,3.3-5.2,6.5-8.4,9.3c-1,0.9-2,1.9-2.8,2.9
			c-1.3,1.7-2.4,3.6-3.6,5.4c-0.1,0.2-0.1,0.5-0.1,0.7c0.2-0.1,0.4-0.2,0.6-0.4c0.2-0.3,0.4-0.6,0.6-0.9c1.6-2.7,3.5-5.1,5.7-7.3
			c3.6-3.6,7.1-7.2,10.7-10.9c0.6-0.6,1.1-1.3,1.7-1.8c0.9-0.8,2.3-0.7,2.8,0.1c0.6,0.9,1.1,2,0.7,3c-0.5,1.5-1.1,2.9-1.9,4.2
			c-2.4,4.1-5.6,7.6-8.7,11.2c-3.7,4.3-7.5,8.4-10.2,13.3c-0.5,0.9-1.2,1.8-2,2.5c-4.7,4.2-9.4,8.4-14.2,12.5
			c-4.7,3.9-9.7,7.4-15.6,9.4c-1.3,0.4-2.6,1.1-3.8,1.7c0,0.1,0.1,0.2,0.1,0.3c0.4-0.1,0.8-0.1,1.2-0.2c1.5-0.7,3-1.5,4.6-2
			c3.5-1.2,6.6-3.1,9.5-5.3c5.9-4.3,11.3-9.2,16.7-14c2.3-2.1,4.2-4.5,5.9-7.2c1.2-1.9,2.5-3.6,3.9-5.3c2.4-3,5-5.8,7.5-8.7
			c2.6-3,5.1-6.1,6.9-9.6c0.4-0.9,0.8-1.8,1-2.8c0.3-1.5-0.6-3.6-1.7-4.1c-1.2-0.6-2.5-0.1-3.8,1.3c-0.4,0.5-0.9,1-1.3,1.5
			c-0.1-0.2,0-0.3,0-0.4c2.5-3.5,4.9-7.1,7.4-10.6c0.7-1,0.9-2.1,0.5-3.3c-0.6-1.9-1.7-3.3-4-3.4c0.3-0.3,0.5-0.5,0.6-0.8
			c0.6-1,1.4-1.9,1.7-2.9c1-3.1-1.4-5.8-4.6-5.1c-1,0.2-1.9,0.8-2.8,1.4C414.9,67.5,414.1,68.3,413.4,68.9z"/>
		<path class="st3" d="M413.4,68.9c0.7-0.6,1.5-1.4,2.4-2c0.9-0.6,1.8-1.2,2.8-1.4c3.1-0.7,5.6,2,4.6,5.1c-0.4,1-1.1,1.9-1.7,2.9
			c-0.2,0.3-0.4,0.5-0.6,0.8c2.3,0.1,3.4,1.5,4,3.4c0.4,1.2,0.2,2.3-0.5,3.3c-2.5,3.5-4.9,7.1-7.4,10.6c-0.1,0.1-0.1,0.2,0,0.4
			c0.4-0.5,0.9-1,1.3-1.5c1.3-1.4,2.6-1.9,3.8-1.3c1.1,0.5,2,2.6,1.7,4.1c-0.2,0.9-0.6,1.9-1,2.8c-1.8,3.6-4.3,6.6-6.9,9.6
			c-2.5,2.9-5.1,5.8-7.5,8.7c-1.4,1.7-2.7,3.5-3.9,5.3c-1.6,2.7-3.5,5.1-5.9,7.2c-5.4,4.9-10.8,9.7-16.7,14c-3,2.2-6,4.1-9.5,5.3
			c-1.6,0.6-3.1,1.4-4.6,2c-0.4,0.1-0.8,0.1-1.2,0.2c0-0.1-0.1-0.2-0.1-0.3c1.3-0.6,2.5-1.3,3.8-1.7c5.9-2,10.9-5.4,15.6-9.4
			c4.8-4.1,9.5-8.3,14.2-12.5c0.8-0.7,1.5-1.6,2-2.5c2.8-4.9,6.6-9.1,10.2-13.3c3.1-3.6,6.3-7.1,8.7-11.2c0.8-1.3,1.4-2.8,1.9-4.2
			c0.4-1.1-0.1-2.1-0.7-3c-0.6-0.9-1.9-1-2.8-0.1c-0.6,0.5-1.1,1.2-1.7,1.8c-3.6,3.6-7.1,7.3-10.7,10.9c-2.2,2.2-4.1,4.6-5.7,7.3
			c-0.2,0.3-0.3,0.7-0.6,0.9c-0.1,0.2-0.4,0.3-0.6,0.4c0-0.2,0-0.5,0.1-0.7c1.2-1.8,2.3-3.7,3.6-5.4c0.8-1.1,1.8-2.1,2.8-2.9
			c3.1-2.8,5.8-5.9,8.4-9.3c3.1-4.1,6-8.3,8.8-12.6c1.1-1.7,0.3-4.5-1.5-5.4c-1-0.5-2-0.3-2.9,0.7c-2.6,2.9-5.1,5.9-7.8,8.8
			c-3.7,4-7.3,8.1-11.6,11.5c-1.1,0.8-1.8,2-2.7,3.1c-0.1,0.2-0.3,0.3-0.5,0.4c-0.1-0.1-0.2-0.1-0.2-0.2c0.1-0.3,0.2-0.7,0.4-0.9
			c0.7-0.9,1.4-1.8,2.3-2.5c6-4.9,11.1-10.8,16.3-16.6c1.8-2,3.6-4.1,5.4-6.1c0.6-0.7,1.2-1.5,1.7-2.4c1.1-2.3-0.5-5-2.8-4.9
			c-1.1,0-2.2,0.4-3.1,1.1c-7.4,6.2-14.7,12.6-21.5,19.6c-1.9,2-4,3.7-6.1,5.5c-0.3,0.3-0.7,0.4-1,0.6c-0.1-0.1-0.1-0.1-0.2-0.2
			c0.1-0.2,0.2-0.4,0.3-0.5c2.1-1.9,4.4-3.6,6.4-5.7c5.3-5.6,11.2-10.5,16.8-15.8c0.5-0.4,0.8-1,1.1-1.5c0.6-1.1,0.3-2.2-0.5-3.1
			c-0.8-0.9-1.8-1.3-3-1c-0.8,0.2-1.6,0.4-2.3,0.8c-2.9,1.5-5.7,3.3-8.1,5.6c-1,1-2.1,1.8-3.2,2.8c-1.7,1.5-3.5,3-5.2,4.5
			c-5.1,4.4-10.3,8.8-16,12.5c-4.3,2.9-8.5,5.9-12.8,8.9c-0.6,0.5-1.2,1-1.8,1.6c-0.2,0.2-0.5,0.3-0.7,0.4c-0.1-0.1-0.1-0.2-0.2-0.2
			c0.2-0.3,0.4-0.6,0.6-0.7c3.1-2.3,6.1-4.7,9.2-7c4.3-3.1,8.7-6.1,13.1-9.1c0.4-0.3,0.8-0.6,1.1-0.9c0.7-0.6,1-1.4,0.6-2.2
			c-0.4-0.7-1.1-0.7-1.8-0.6c-1,0.2-2.1,0.5-3.1,0.9c-2.4,1.2-4.9,2-7.5,2.4c-1.7,0.2-2.9,1.1-3.8,2.4c-2.9,4.2-6.1,8.2-9.6,12
			c-0.3,0.3-0.5,0.7-0.6,1.1c-2,5.7-4,11.4-5.9,17.2c-0.4,1.1-0.4,2.3-0.4,3.4c-0.1,1-0.5,1.5-1.4,2c-1.6,0.7-3.1,1.6-4.7,2.4
			c-0.2,0.1-0.5,0-0.8,0c0.2-0.2,0.3-0.5,0.5-0.6c1.6-0.9,3.3-1.7,4.9-2.5c0.3-0.2,0.7-0.6,0.7-0.8c-0.1-3.6,1.6-6.6,2.6-9.9
			c1.2-3.8,2.5-7.5,3.8-11.3c0.2-0.6,0.5-1.1,0.9-1.6c3.1-3.4,6.2-7,8.7-10.9c1.4-2.1,3.2-3.3,5.7-3.7c2.1-0.4,4.1-1.3,6.1-2
			c1.2-0.4,2.3-0.9,3.5-1.1c1.7-0.3,2.6,0.4,2.8,2.2c1.5-1.2,3-2.3,4.3-3.5c3.7-3.2,7.2-6.4,10.9-9.5c2.4-2,5.1-3.8,8-5
			c2.6-1,4.6-0.3,5.6,2C413.4,67.2,413.3,68.1,413.4,68.9z"/>
	</g>
	<g>
		<circle class="st5" cx="297" cy="161" r="36"/>
		<path class="st3" d="M301.7,135.1c0,6.5,0,13,0,19.6c5.4-0.8,10.7-1.6,16.2-2.4c0,11.1,0,22.2,0,33.3c-12.8,0-25.5,0-38.3,0
			c0-16.8,0-33.6,0-50.5C286.9,135.1,294.3,135.1,301.7,135.1z"/>
		<line class="st3" x1="317.9" y1="152.3" x2="301.7" y2="135.1"/>
	</g>
</g>
<g transform="translate(308 219)">
	<text transform="matrix(1 0 0 1 -126.6748 -165)" class="st1 st6 st7">Scissors</text>
	<text transform="matrix(1 0 0 1 -117.5356 -140)" class="st1 st6 st8">beats paper</text>
	<text transform="matrix(0.5 -0.866 0.866 0.5 18.2398 67.1642)" class="st1 st6 st7">Paper</text>
	<text transform="matrix(0.5 -0.866 0.866 0.5 39.1441 80.9572)" class="st1 st6 st8">beats rock</text>
	<text transform="matrix(0.5 0.866 -0.866 0.5 -195.3401 2.9037)" class="st1 st6 st7">Rock</text>
	<text transform="matrix(0.5 0.866 -0.866 0.5 -228.4134 -4.38)" class="st1 st6 st8">beats scissors</text>
</g>
</svg>
