<svg xmlns="http://www.w3.org/2000/svg" viewBox="0 0 126.5 126.5"><defs><style>.cls-1{fill:green;}.cls-1,.cls-2{stroke:#fff;stroke-width:2.5px;}.cls-2{fill:none;}</style></defs><title>Rock-paper-scissors</title><g id="scissors"><circle id="background" class="cls-1" cx="63.25" cy="63.25" r="62"/><path id="hand" class="cls-2" d="M40.7,104.68c2.11-1.1,4.11-2.66,6.35-3.2,6.6-1.59,11.66-5.68,16.77-9.71,2.78-2.17,5.41-4.52,8.1-6.8.21-.18.51-.4.52-.61.08-1.58,1.48-2.16,2.33-3.14a4.39,4.39,0,0,1,3.88-1.59c.17,0,.37-.18.53-.32a5.06,5.06,0,0,0,.69-6.94,33.28,33.28,0,0,0-3.08-3c-.37-.36-.78-.68-1.12-1.06-.09-.09,0-.36,0-.55a3.49,3.49,0,0,1,.44.2l3,2.48c.67-1.12,1.34-2.1,1.89-3.15a3.53,3.53,0,0,0-.62-4.48,17.19,17.19,0,0,0-3.24-2.35,4,4,0,0,0-1.75-.16c-.31,0-.67.18-.9.06a2.2,2.2,0,0,1-1-.86,1.09,1.09,0,0,1,.3-.94,10.58,10.58,0,0,1,1.76-1.31c.92-.55,1.87-1.05,2.83-1.53a53.34,53.34,0,0,0,8.69-5.63c3.86-3,8.06-5.68,12.12-8.48,1.46-1,3-2,4.39-3a2.28,2.28,0,0,0,.81-1.44c.23-2.1-1.88-4.36-4.08-3.7a39.63,39.63,0,0,0-8.24,3.3c-3.52,2-7,4-10.67,5.75a57.69,57.69,0,0,0-8.39,5.27c-1.12.81-2.25,1.6-3.43,2.31-1,.58-1.49.39-2-.62a5.69,5.69,0,0,1-.34-4.55c2.35-7,4.73-14,8.23-20.51.75-1.4,1.42-2.85,2-4.32a4.55,4.55,0,0,0,.4-2.05c-.17-2.47-2.23-3.63-4.38-2.38A7.79,7.79,0,0,0,71.27,18c-4.86,6.89-9.69,13.8-12.9,21.67-.44,1.07-1,2.1-1.46,3.17a16.4,16.4,0,0,1-3.48,5,10.61,10.61,0,0,0-2,3A14.75,14.75,0,0,1,49,54.57a206.59,206.59,0,0,0-14.31,18c-1.17,1.57-2.37,3.13-3.51,4.73a6.21,6.21,0,0,1-2.4,2.06c-2.48,1.19-4.94,2.44-7.42,3.64a2.27,2.27,0,0,1-.79.07c0-.1,0-.21-.05-.31.2-.12.4-.25.61-.35,2.47-1.22,5-2.39,7.4-3.68A6.51,6.51,0,0,0,30.54,77c4.7-6.1,9.33-12.24,14-18.33,1.25-1.63,2.74-3.07,4-4.66a19.05,19.05,0,0,0,2.17-3.26,16.51,16.51,0,0,1,2.73-4,16,16,0,0,0,2.41-3.42c1.1-2.08,2.06-4.24,3-6.4,3.17-7.17,7.74-13.48,12.23-19.84a7.39,7.39,0,0,1,2.15-1.94,3.27,3.27,0,0,1,3.89.07,3.55,3.55,0,0,1,1.33,3.86A24.73,24.73,0,0,1,77,23c-2,4.55-4.22,9-6.16,13.63C69.73,39.24,69,42,68.05,44.69a5.8,5.8,0,0,0,.09,4.39c.3.67.74.86,1.37.43.92-.61,1.89-1.16,2.74-1.85,4.6-3.71,9.93-6.17,15.07-8.93,1.41-.76,2.85-1.45,4.2-2.28a34.63,34.63,0,0,1,8.64-3.54c3-.88,5.4,2.18,4.9,4.71a2.52,2.52,0,0,1-.83,1.36c-1,.82-2.13,1.54-3.22,2.28-4.35,3-8.91,5.69-13,9A75.2,75.2,0,0,1,76.3,57.61a13.64,13.64,0,0,0-1.74,1.18c-.18.14-.23.45-.33.68.25.11.58.38.76.31,1.39-.58,2.52,0,3.63.71a7.23,7.23,0,0,1,3.31,3.57,4.27,4.27,0,0,1-.31,3.56c-.48.89-1,1.74-1.58,2.58a1,1,0,0,0,0,1.39C83,74.4,81.43,79.51,77.68,81c-1.07.43-2.11,1-3.15,1.5a2.34,2.34,0,0,0-1.45,1.87,1.46,1.46,0,0,1-.48.85c-5,4.09-9.65,8.64-15.16,12.09-2.1,1.32-4.27,2.52-6.49,3.63a17.78,17.78,0,0,1-3.14.91,6.73,6.73,0,0,0-1.28.47c-1.57.83-3.12,1.71-4.69,2.54a4.29,4.29,0,0,1-1,.22C40.77,104.93,40.74,104.8,40.7,104.68Z"/></g></svg>