<?xml version="1.0" encoding="utf-8"?>
<svg version="1.1" id="wrong" xmlns="http://www.w3.org/2000/svg" xmlns:xlink="http://www.w3.org/1999/xlink" x="0px" y="0px"
	 viewBox="0 0 80 80" style="enable-background:new 0 0 80 80;" xml:space="preserve">
<style type="text/css">
	.st0{fill:#FFFFFF;}
	.st1{fill:#32FF00;}
</style>
<path id="outside" class="st0" d="M40,0C17.9,0,0,17.9,0,40s18,40,40,40s40-18,40-40S62,0,40,0z"/>
<circle id="inside" class="st1" cx="40" cy="40" r="36"/>
<path id="check" class="st0" d="M59,24.1L32.3,50.9L20.9,39.5c-1.1-1.1-2.3-0.6-2.8,0c-0.6,0.6-1,1.6,0,2.8l11.4,11.4l1.4,1.4
	c0.8,0.8,2,0.8,2.8,0l1.4-1.4l26.8-26.8c1.1-1.1,0.6-2.3,0-2.8C61.2,23.5,60.2,23.1,59,24.1z"/>
</svg>
